<svg width="470" height="385" viewBox="0 0 470 385" fill="none" xmlns="http://www.w3.org/2000/svg">
<path d="M206.885 1.54408C203.01 -0.153919 198.437 0.64808 195.343 3.58608L85.49 107.336H10.667C4.771 107.336 0 112.107 0 118.002V267.335C0 273.231 4.771 278.002 10.667 278.002H85.49L195.344 381.752C197.365 383.669 200 384.669 202.667 384.669C204.094 384.669 205.532 384.388 206.886 383.794C210.803 382.117 213.334 378.263 213.334 374.002V11.3361C213.333 7.07508 210.802 3.22108 206.885 1.54408Z" fill="white"/>
<path d="M262.452 132.884L247.253 148.083C243.748 151.588 242.813 157.251 245.74 161.251C252.189 170.07 256 180.933 256 192.669C256 204.405 252.189 215.268 245.74 224.086C242.813 228.086 243.748 233.75 247.253 237.255L262.452 252.453C267.107 257.109 274.711 256.392 278.732 251.177C291.227 234.969 298.667 214.672 298.667 192.669C298.667 170.665 291.227 150.368 278.732 134.16C274.711 128.945 267.107 128.228 262.452 132.884Z" fill="white"/>
<path d="M338.423 72.575C334.413 68.045 327.272 68.063 322.995 72.341L307.903 87.433C303.86 91.475 303.898 97.828 307.633 102.154C328.624 126.461 341.334 158.108 341.334 192.668C341.334 227.228 328.624 258.875 307.633 283.184C303.897 287.51 303.861 293.861 307.903 297.903L322.995 312.995C327.272 317.274 334.413 317.291 338.425 312.762C366.771 280.755 384 238.686 384 192.669C384 146.651 366.771 104.582 338.423 72.575Z" fill="white"/>
<path d="M398.764 12.1381C394.682 7.70814 387.613 7.72114 383.355 11.9801L368.243 27.0921C364.19 31.1451 364.21 37.5431 368.076 41.7771C404.452 81.6171 426.666 134.599 426.666 192.669C426.666 250.739 404.452 303.72 368.076 343.561C364.211 347.795 364.189 354.193 368.243 358.246L383.355 373.357C387.614 377.617 394.683 377.629 398.765 373.199C442.555 325.67 469.333 262.238 469.333 192.669C469.333 123.099 442.555 59.6661 398.764 12.1381Z" fill="white"/>
</svg>
