<svg width="512" height="394" viewBox="0 0 512 394" fill="none" xmlns="http://www.w3.org/2000/svg">
<path d="M494.438 86.4249C483.996 75.9989 470.38 69.9299 455.774 69.1059L443 57.0449C435.508 43.3229 421.308 34.8669 405.573 34.8669H401.067V17.7999C401.067 8.38791 393.413 0.73291 384 0.73291H349.867C340.455 0.73291 332.8 8.38691 332.8 17.7999V34.8669H89.361C73.626 34.8669 59.435 43.3239 51.934 57.0449L39.102 69.1599C17.239 70.9789 0 89.3419 0 111.667V333.534C0 357.06 19.14 376.2 42.667 376.2H231.194C279.8 376.2 329.029 382.805 376.628 389.196C386.151 390.476 395.691 391.756 405.232 392.985C406.666 393.173 408.125 393.267 409.601 393.267H477.868C496.693 393.267 512.001 377.958 512.001 359.134V128.81C512 112.785 505.762 97.7399 494.438 86.4249ZM349.867 17.7999H384V34.8669H349.867V17.7999ZM66.466 66.0819C70.827 57.3519 79.607 51.9339 89.361 51.9339H341.333H392.533H405.572C415.334 51.9339 424.106 57.3529 428.467 66.0819C428.911 66.9779 429.508 67.7799 430.242 68.4709L430.802 68.9999H64.131L64.691 68.4709C65.417 67.7799 66.014 66.9779 66.466 66.0819ZM494.933 359.133C494.933 368.545 487.279 376.2 477.866 376.2H409.6C408.858 376.2 408.124 376.157 407.407 376.063C397.901 374.834 388.395 373.554 378.897 372.283C330.735 365.815 280.943 359.133 231.194 359.133H42.667C28.553 359.133 17.067 347.647 17.067 333.533V111.667C17.067 97.5529 28.553 86.0669 42.667 86.0669H452.267H452.276C463.241 86.0239 474.335 90.4699 482.382 98.5089C490.48 106.59 494.935 117.351 494.935 128.811V359.133H494.933Z" fill="#888181"/>
<path d="M349.867 111.667H76.8002C62.6862 111.667 51.2002 123.153 51.2002 137.267V307.934C51.2002 322.048 62.6862 333.534 76.8002 333.534H349.867C363.981 333.534 375.467 322.048 375.467 307.934V137.267C375.467 123.153 363.981 111.667 349.867 111.667ZM358.4 307.933C358.4 312.635 354.569 316.466 349.867 316.466H76.8002C72.0982 316.466 68.2672 312.635 68.2672 307.933V137.267C68.2672 132.565 72.0982 128.734 76.8002 128.734H349.867C354.569 128.734 358.4 132.565 358.4 137.267V307.933V307.933Z" fill="#888181"/>
<path d="M119.467 145.8H93.867C89.157 145.8 85.334 149.623 85.334 154.333V179.933C85.334 184.643 89.157 188.466 93.867 188.466C98.577 188.466 102.4 184.643 102.4 179.933V162.866H119.467C124.177 162.866 128 159.043 128 154.333C128 149.623 124.177 145.8 119.467 145.8Z" fill="#888181"/>
<path d="M119.467 282.333H102.4V265.266C102.4 260.556 98.577 256.733 93.867 256.733C89.157 256.733 85.334 260.556 85.334 265.266V290.866C85.334 295.576 89.157 299.399 93.867 299.399H119.467C124.177 299.399 128 295.576 128 290.866C128 286.156 124.177 282.333 119.467 282.333Z" fill="#888181"/>
<path d="M332.8 256.733C328.09 256.733 324.267 260.556 324.267 265.266V282.333H307.2C302.49 282.333 298.667 286.156 298.667 290.866C298.667 295.576 302.49 299.399 307.2 299.399H332.8C337.51 299.399 341.333 295.576 341.333 290.866V265.266C341.333 260.556 337.51 256.733 332.8 256.733Z" fill="#888181"/>
<path d="M332.8 145.8H307.2C302.49 145.8 298.667 149.623 298.667 154.333C298.667 159.043 302.49 162.866 307.2 162.866H324.267V179.933C324.267 184.643 328.09 188.466 332.8 188.466C337.51 188.466 341.333 184.643 341.333 179.933V154.333C341.333 149.623 337.51 145.8 332.8 145.8Z" fill="#888181"/>
<path d="M179.2 214.067C193.314 214.067 204.8 202.581 204.8 188.467C204.8 174.353 193.314 162.867 179.2 162.867C165.086 162.867 153.6 174.353 153.6 188.467C153.6 202.581 165.086 214.067 179.2 214.067ZM179.2 179.933C183.902 179.933 187.733 183.764 187.733 188.466C187.733 193.168 183.902 196.999 179.2 196.999C174.498 196.999 170.667 193.168 170.667 188.466C170.667 183.765 174.498 179.933 179.2 179.933Z" fill="#888181"/>
<path d="M244.966 216.567C241.629 213.23 236.236 213.23 232.9 216.567L204.803 244.664L193.775 233.633C190.438 230.296 185.037 230.296 181.7 233.633L147.567 267.766C144.23 271.103 144.23 276.496 147.567 279.832C149.231 281.496 151.416 282.332 153.6 282.332C155.785 282.332 157.969 281.496 159.633 279.832L187.737 251.735L215.834 279.832C217.498 281.496 219.683 282.332 221.867 282.332C224.052 282.332 226.236 281.496 227.9 279.832C231.236 276.496 231.236 271.102 227.9 267.766L216.868 256.731L238.934 234.665L267.034 262.765C268.698 264.429 270.883 265.265 273.067 265.265C275.252 265.265 277.436 264.429 279.1 262.765C282.437 259.428 282.437 254.035 279.1 250.699L244.966 216.567Z" fill="#888181"/>
<path d="M443.733 214.067H426.666C417.254 214.067 409.599 221.721 409.599 231.134V248.2C409.599 257.612 417.253 265.267 426.666 265.267H443.733C453.145 265.267 460.8 257.613 460.8 248.2V231.133C460.8 221.721 453.146 214.067 443.733 214.067ZM426.667 248.2V231.133H443.734L443.743 248.2H426.667Z" fill="#888181"/>
<path d="M443.733 290.867H426.666C417.254 290.867 409.599 298.521 409.599 307.934V325C409.599 334.412 417.253 342.067 426.666 342.067H443.733C453.145 342.067 460.8 334.413 460.8 325V307.933C460.8 298.521 453.146 290.867 443.733 290.867ZM426.667 325V307.933H443.734L443.742 325H426.667Z" fill="#888181"/>
<path d="M435.2 120.2C416.375 120.2 401.067 135.509 401.067 154.333C401.067 173.157 416.376 188.466 435.2 188.466C454.025 188.466 469.333 173.157 469.333 154.333C469.333 135.509 454.025 120.2 435.2 120.2ZM435.2 171.4C425.788 171.4 418.133 163.746 418.133 154.333C418.133 144.921 425.787 137.266 435.2 137.266C444.613 137.266 452.267 144.92 452.267 154.333C452.267 163.746 444.612 171.4 435.2 171.4Z" fill="#888181"/>
</svg>
