<svg width="577" height="818" viewBox="0 0 577 818" fill="none" xmlns="http://www.w3.org/2000/svg">
<g clip-path="url(#clip0)">
<path d="M358.827 3.19512C328.618 11.0236 296.012 27.4795 246.144 59.9119C211.46 82.4389 180.133 96.658 147.846 104.646C118.117 111.836 114.761 114.712 100.535 144.907C93.9822 158.647 88.7077 167.115 82.7938 173.825C78.1587 178.937 72.085 186.446 69.208 190.44C66.4908 194.435 56.7409 204.18 47.6304 211.849C24.934 231.34 5.91377 250.512 2.7171 257.542C-1.91808 267.447 -0.959081 297.324 5.43427 342.537C8.95061 366.662 11.3481 391.266 12.1473 408.201C13.5858 448.622 16.303 455.492 47.4706 500.386C72.7243 536.653 80.3963 550.392 86.9495 570.842C96.06 599.76 97.4985 614.618 97.4985 680.921C97.3387 721.022 96.5395 745.626 94.9412 760.484C92.3839 783.65 93.5027 803.621 97.6584 812.568C101.015 819.597 108.527 819.757 114.281 812.887C120.195 805.858 125.629 793.556 128.027 781.413C130.424 769.111 128.986 740.034 125.31 725.336C120.355 705.365 119.875 695.3 121.793 657.755C123.551 625.163 123.392 618.932 120.834 598.961C119.236 586.659 116.998 572.76 115.56 568.286C111.724 554.866 100.535 535.215 78.4783 503.421C53.0647 466.515 49.2287 459.805 43.9542 441.752C40.1182 428.491 39.6387 423.219 37.5609 372.254C36.2822 341.898 34.524 312.501 33.565 306.75C32.7659 300.998 31.9667 289.815 31.9667 281.826C31.9667 269.365 32.606 266.329 36.1224 258.98C47.1509 236.932 87.1093 218.08 155.039 202.902C171.342 199.387 191.481 194.115 199.792 191.399C218.812 185.168 242.787 184.21 257.492 189.003C268.681 192.677 280.668 201.624 286.902 211.05C295.213 223.352 315.352 293.489 317.43 316.975L318.389 328.318L310.237 340.46C300.487 355.159 284.984 370.017 271.398 377.686C256.533 385.834 228.882 393.662 218.173 392.544C203.309 391.106 186.526 379.763 182.37 368.579C179.333 360.751 180.292 356.437 186.686 349.887C191.641 344.454 194.198 343.176 202.19 341.738C207.464 340.78 213.378 339.022 215.456 337.744C220.411 334.389 220.091 325.602 214.177 310.744C211.62 304.034 209.382 296.525 209.382 293.969C209.382 291.412 208.743 287.578 207.784 285.341C205.386 278.791 199.632 280.069 184.128 290.773C165.907 303.075 163.51 303.874 149.445 302.596C136.018 301.318 131.064 303.235 131.064 309.306C131.064 316.016 133.781 319.052 144.65 325.123C155.998 331.513 161.432 337.265 161.432 342.697C161.432 344.614 159.674 351.484 157.436 357.875C152.641 371.934 152.481 374.171 156.477 377.686C161.432 382.319 161.752 387.272 157.436 400.372C152.641 415.071 152.641 416.189 156.637 420.183C160.633 424.178 166.227 424.178 185.727 420.822C216.735 415.39 254.935 420.982 283.705 435.201C312.315 449.42 316.311 452.616 331.815 476.421C339.327 488.084 347.958 500.066 350.675 502.942C356.589 509.492 367.618 515.563 367.618 512.528C367.618 511.41 368.417 502.143 369.216 491.758C370.655 471.788 372.413 466.995 381.363 456.131C384.4 452.616 389.195 446.545 392.072 442.551C395.748 437.438 402.621 432.166 415.568 424.178C436.186 411.396 442.58 404.686 443.699 394.461C444.977 382.798 445.776 380.881 450.252 376.408C452.489 374.011 459.362 369.538 465.116 366.502C471.03 363.467 477.424 359.472 479.342 357.715C483.497 353.881 483.657 347.33 479.661 341.419C476.944 337.105 476.784 336.147 478.862 328.638C480.141 324.004 481.1 316.495 481.1 311.862C481.1 304.513 480.46 302.596 476.624 298.762C474.067 296.365 468.952 293.329 465.276 292.211C456.645 289.655 446.576 281.187 448.014 277.513C448.973 275.116 452.01 274.797 471.35 274.797C490.85 274.797 495.325 274.317 506.194 270.803C521.378 266.01 524.574 265.85 528.41 270.163C531.128 273.199 531.447 276.714 531.927 299.401C532.247 315.697 531.767 327.519 530.648 331.513C529.689 335.028 523.456 349.407 517.062 363.467C503.956 392.065 502.837 397.017 500.12 432.965C496.604 480.894 488.612 498.309 462.879 513.167C437.625 527.865 434.428 535.854 440.502 567.328C441.94 574.677 443.219 585.541 443.219 591.292C443.379 600.559 442.58 603.594 437.465 613.979C430.752 627.559 421.482 636.826 412.851 638.423C397.986 641.139 383.122 634.749 377.048 622.766C374.011 616.695 373.691 614.458 374.65 601.038C375.929 584.103 374.97 581.547 366.819 581.547C356.429 581.547 335.651 601.038 335.651 610.624C335.651 616.855 330.376 624.843 323.823 628.678C320.307 630.754 311.356 634.589 304.323 637.305C290.418 642.577 286.902 645.293 285.303 652.003C284.344 655.678 285.303 656.956 292.336 662.069C302.246 669.418 308.799 677.566 314.553 689.708C318.549 698.176 318.868 700.732 319.188 719.584C319.348 737.158 319.827 740.673 322.545 744.348C324.143 746.585 327.18 748.661 329.098 748.981C337.409 750.259 343.643 737.158 347.319 710.478C350.036 691.146 354.032 683.637 363.782 679.643C380.564 672.613 405.019 683.317 412.051 700.732C413.01 703.288 416.047 713.992 418.605 724.537C426.916 757.608 429.953 763.679 438.104 763.679C446.256 763.679 447.535 759.526 447.694 730.928C447.694 716.868 448.334 695.619 448.973 683.797C450.092 663.826 450.731 661.11 456.166 647.849C464.637 627.559 466.075 622.606 472.469 591.612C480.141 552.949 483.657 544.481 497.882 528.824C518.82 505.498 523.136 491.758 526.652 435.361C529.369 392.224 529.529 391.106 543.914 360.112C560.537 324.324 559.738 327.2 561.176 291.572C562.295 263.294 563.094 255.625 569.168 226.068C579.397 174.464 579.557 140.753 569.648 121.102C563.894 109.759 553.185 100.013 538.16 92.6639C521.538 84.5158 509.23 81.4803 484.616 79.2436L464.797 77.4861L458.723 69.8174C455.366 65.6635 446.895 52.8822 440.022 41.3791C426.117 17.7338 415.568 6.70996 403.42 2.55606C393.351 -0.799021 372.892 -0.639255 358.827 3.19512ZM407.097 41.3791C426.277 63.5865 436.346 83.8768 437.625 103.208C438.424 115.51 435.547 126.854 429.953 134.203L426.916 138.197L421.482 135.321C413.49 131.008 409.654 124.777 402.781 105.924C399.425 96.8178 394.949 86.5928 392.712 83.2377C388.076 76.208 371.773 64.7049 363.142 62.3084C353.233 59.5924 334.692 60.551 311.995 64.8646C300.328 67.1014 290.258 68.699 290.098 68.3795C288.979 67.2611 315.032 50.965 328.778 44.0951C340.766 38.024 356.589 32.4322 368.417 29.876C370.175 29.3967 377.048 29.0771 383.921 28.9174L396.068 28.7576L407.097 41.3791ZM355.95 87.2318C363.942 90.1076 375.29 101.93 381.204 113.433C389.835 130.528 399.744 158.967 401.343 171.588C402.142 178.458 405.498 196.032 408.375 210.411C413.81 235.974 414.928 247.317 413.01 258.98C412.051 264.731 411.892 264.891 407.256 263.453C394.949 259.938 389.355 250.672 383.601 223.672C378.966 202.263 365.7 160.724 358.827 146.185C352.433 132.605 342.843 121.262 332.934 115.51C327.18 112.155 322.864 111.197 313.274 110.558C296.971 109.599 275.394 115.031 210.981 136.12C184.128 144.907 159.674 152.416 156.637 152.896C149.125 153.854 144.65 149.381 146.887 143.31C149.125 137.558 154.24 134.682 164.309 133.724C169.104 133.085 198.513 124.138 229.841 113.593C286.582 94.5811 311.836 87.3916 330.057 84.9951C340.925 83.3975 346.36 83.8768 355.95 87.2318ZM503.796 104.007C522.656 108.001 543.914 122.7 549.509 135.801C552.705 143.469 553.824 168.073 551.586 179.257C548.55 193.476 541.357 206.417 530.648 216.163C515.784 230.062 495.645 235.814 467.354 234.536C450.412 233.897 446.895 232.139 438.744 220.636C432.67 212.009 432.031 197.79 437.305 190.6C443.219 182.612 449.772 181.653 468.633 186.446C488.132 191.239 513.066 192.997 521.538 190.281C534.005 186.127 536.722 175.742 530.648 155.931C528.091 148.103 526.013 144.588 522.177 141.712C515.464 136.759 514.185 136.28 495.964 133.404C478.862 130.688 470.87 127.493 467.354 122.061C465.116 118.865 465.116 118.067 467.514 114.392C470.71 109.599 475.825 106.084 482.858 104.167C490.21 101.93 493.886 101.93 503.796 104.007ZM317.27 137.878C326.86 142.83 337.249 153.215 342.044 162.801C343.962 166.635 346.52 175.902 347.638 183.091C348.917 190.44 354.032 208.813 358.987 223.991C367.458 249.554 368.097 252.749 368.257 266.808C368.417 283.424 365.86 291.572 357.228 301.637C348.438 312.022 339.966 305.472 334.852 284.063C333.253 277.672 329.737 266.649 326.86 259.619C323.983 252.589 318.709 237.092 314.873 225.269C303.844 189.642 296.172 177.659 279.23 169.351C271.238 165.517 266.443 164.399 254.935 163.6C236.234 162.322 221.37 164.878 177.575 177.34C118.437 193.955 98.6174 195.233 113.162 181.813C121.154 174.304 126.109 172.866 147.846 171.748C175.817 170.47 186.526 167.913 228.562 153.055C248.382 146.026 269.64 138.517 275.713 136.44C290.418 131.327 305.602 131.806 317.27 137.878ZM489.411 148.742C504.116 151.777 511.308 158.168 510.03 166.955C508.751 175.422 504.435 175.742 477.903 169.671C461.92 165.837 459.362 164.878 457.284 161.044C455.047 157.209 455.047 156.57 457.764 153.535C463.038 147.783 475.505 145.866 489.411 148.742Z" fill="#621010"/>
</g>
<defs>
<clipPath id="clip0">
<rect width="577" height="818" fill="white"/>
</clipPath>
</defs>
</svg>
