<?xml version="1.0" encoding="iso-8859-1"?>
<!-- Generator: Adobe Illustrator 19.0.0, SVG Export Plug-In . SVG Version: 6.00 Build 0)  -->
<svg version="1.1" id="Layer_1" xmlns="http://www.w3.org/2000/svg" xmlns:xlink="http://www.w3.org/1999/xlink" x="0px" y="0px"
	 viewBox="0 0 512 512" style="enable-background:new 0 0 512 512;" xml:space="preserve">
<g>
	<g>
		<g>
			<path d="M494.438,145.425c-10.442-10.426-24.058-16.495-38.664-17.319L443,116.045c-7.492-13.722-21.692-22.178-37.427-22.178
				h-4.506V76.8c0-9.412-7.654-17.067-17.067-17.067h-34.133c-9.412,0-17.067,7.654-17.067,17.067v17.067H89.361
				c-15.735,0-29.926,8.457-37.427,22.178L39.102,128.16C17.239,129.979,0,148.342,0,170.667v221.867
				C0,416.06,19.14,435.2,42.667,435.2h188.527c48.606,0,97.835,6.605,145.434,12.996c9.523,1.28,19.063,2.56,28.604,3.789
				c1.434,0.188,2.893,0.282,4.369,0.282h68.267c18.825,0,34.133-15.309,34.133-34.133V187.81
				C512,171.785,505.762,156.74,494.438,145.425z M349.867,76.8H384v17.067h-34.133V76.8z M66.466,125.082
				c4.361-8.73,13.141-14.148,22.895-14.148h251.972h51.2h13.039c9.762,0,18.534,5.419,22.895,14.148
				c0.444,0.896,1.041,1.698,1.775,2.389l0.56,0.529H64.131l0.56-0.529C65.417,126.78,66.014,125.978,66.466,125.082z
				 M494.933,418.133c0,9.412-7.654,17.067-17.067,17.067H409.6c-0.742,0-1.476-0.043-2.193-0.137
				c-9.506-1.229-19.012-2.509-28.51-3.78c-48.162-6.468-97.954-13.15-147.703-13.15H42.667c-14.114,0-25.6-11.486-25.6-25.6
				V170.667c0-14.114,11.486-25.6,25.6-25.6h409.6h0.009c10.965-0.043,22.059,4.403,30.106,12.442
				c8.098,8.081,12.553,18.842,12.553,30.302V418.133z"/>
			<path d="M349.867,170.667H76.8c-14.114,0-25.6,11.486-25.6,25.6v170.667c0,14.114,11.486,25.6,25.6,25.6h273.067
				c14.114,0,25.6-11.486,25.6-25.6V196.267C375.467,182.153,363.981,170.667,349.867,170.667z M358.4,366.933
				c0,4.702-3.831,8.533-8.533,8.533H76.8c-4.702,0-8.533-3.831-8.533-8.533V196.267c0-4.702,3.831-8.533,8.533-8.533h273.067
				c4.702,0,8.533,3.831,8.533,8.533V366.933z"/>
			<path d="M119.467,204.8h-25.6c-4.71,0-8.533,3.823-8.533,8.533v25.6c0,4.71,3.823,8.533,8.533,8.533
				c4.71,0,8.533-3.823,8.533-8.533v-17.067h17.067c4.71,0,8.533-3.823,8.533-8.533S124.177,204.8,119.467,204.8z"/>
			<path d="M119.467,341.333H102.4v-17.067c0-4.71-3.823-8.533-8.533-8.533c-4.71,0-8.533,3.823-8.533,8.533v25.6
				c0,4.71,3.823,8.533,8.533,8.533h25.6c4.71,0,8.533-3.823,8.533-8.533C128,345.156,124.177,341.333,119.467,341.333z"/>
			<path d="M332.8,315.733c-4.71,0-8.533,3.823-8.533,8.533v17.067H307.2c-4.71,0-8.533,3.823-8.533,8.533
				c0,4.71,3.823,8.533,8.533,8.533h25.6c4.71,0,8.533-3.823,8.533-8.533v-25.6C341.333,319.556,337.51,315.733,332.8,315.733z"/>
			<path d="M332.8,204.8h-25.6c-4.71,0-8.533,3.823-8.533,8.533s3.823,8.533,8.533,8.533h17.067v17.067
				c0,4.71,3.823,8.533,8.533,8.533c4.71,0,8.533-3.823,8.533-8.533v-25.6C341.333,208.623,337.51,204.8,332.8,204.8z"/>
			<path d="M179.2,273.067c14.114,0,25.6-11.486,25.6-25.6c0-14.114-11.486-25.6-25.6-25.6s-25.6,11.486-25.6,25.6
				C153.6,261.581,165.086,273.067,179.2,273.067z M179.2,238.933c4.702,0,8.533,3.831,8.533,8.533c0,4.702-3.831,8.533-8.533,8.533
				c-4.702,0-8.533-3.831-8.533-8.533C170.667,242.765,174.498,238.933,179.2,238.933z"/>
			<path d="M244.966,275.567c-3.337-3.337-8.73-3.337-12.066,0l-28.097,28.097l-11.028-11.031c-3.337-3.337-8.738-3.337-12.075,0
				l-34.133,34.133c-3.337,3.337-3.337,8.73,0,12.066c1.664,1.664,3.849,2.5,6.033,2.5c2.185,0,4.369-0.836,6.033-2.5l28.104-28.097
				l28.097,28.097c1.664,1.664,3.849,2.5,6.033,2.5c2.185,0,4.369-0.836,6.033-2.5c3.336-3.336,3.336-8.73,0-12.066l-11.032-11.035
				l22.066-22.066l28.1,28.1c1.664,1.664,3.849,2.5,6.033,2.5c2.185,0,4.369-0.836,6.033-2.5c3.337-3.337,3.337-8.73,0-12.066
				L244.966,275.567z"/>
			<path d="M443.733,273.067h-17.067c-9.412,0-17.067,7.654-17.067,17.067V307.2c0,9.412,7.654,17.067,17.067,17.067h17.067
				c9.412,0,17.067-7.654,17.067-17.067v-17.067C460.8,280.721,453.146,273.067,443.733,273.067z M426.667,307.2v-17.067h17.067
				l0.009,17.067H426.667z"/>
			<path d="M443.733,349.867h-17.067c-9.412,0-17.067,7.654-17.067,17.067V384c0,9.412,7.654,17.067,17.067,17.067h17.067
				c9.412,0,17.067-7.654,17.067-17.067v-17.067C460.8,357.521,453.146,349.867,443.733,349.867z M426.667,384v-17.067h17.067
				L443.742,384H426.667z"/>
			<path d="M435.2,179.2c-18.825,0-34.133,15.309-34.133,34.133s15.309,34.133,34.133,34.133c18.825,0,34.133-15.309,34.133-34.133
				S454.025,179.2,435.2,179.2z M435.2,230.4c-9.412,0-17.067-7.654-17.067-17.067c0-9.412,7.654-17.067,17.067-17.067
				s17.067,7.654,17.067,17.067C452.267,222.746,444.612,230.4,435.2,230.4z"/>
		</g>
	</g>
</g>
<g>
</g>
<g>
</g>
<g>
</g>
<g>
</g>
<g>
</g>
<g>
</g>
<g>
</g>
<g>
</g>
<g>
</g>
<g>
</g>
<g>
</g>
<g>
</g>
<g>
</g>
<g>
</g>
<g>
</g>
</svg>
