<svg width="512" height="512" viewBox="0 0 512 512" fill="none" xmlns="http://www.w3.org/2000/svg">
<path d="M140.327 91.905C148.229 86.324 139.576 74.073 131.673 79.653C74.427 120.083 40.25 186.008 40.25 256C40.25 313.629 62.691 367.809 103.441 408.558C144.191 449.308 198.371 471.75 256 471.75C373.763 471.75 471.75 373.726 471.75 256C471.75 198.371 449.309 144.191 408.559 103.442C367.809 62.692 313.629 40.25 256 40.25C226.512 40.25 197.929 46.095 171.044 57.623C162.152 61.436 168.063 75.22 176.956 71.409C201.961 60.687 228.556 55.25 256 55.25C267.139 55.25 278.065 56.177 288.715 57.93L183.47 240.6L111.846 116.33C120.487 107.396 129.998 99.2 140.327 91.905V91.905ZM68.04 326.5H279.344L207.135 450.724C143.011 434.626 91.035 387.606 68.04 326.5ZM287.732 200.5L320.086 256L288.043 311.5H224.334L192.13 255.625L223.957 200.5H287.732ZM256 456.75C244.624 456.75 233.471 455.784 222.607 453.957L329.281 270.441L402.284 393.329C365.639 432.341 313.62 456.75 256 456.75V456.75ZM412.643 381.398L311.723 211.517L305.363 200.501H448.941C454.021 218.135 456.75 236.755 456.75 256.001C456.75 303.405 440.223 347.015 412.643 381.398V381.398ZM443.96 185.5H232.529L304.195 61.112C368.626 77.05 420.885 124.182 443.96 185.5V185.5ZM206.637 311.5H63.059C57.979 293.866 55.25 275.246 55.25 256C55.25 208.865 71.919 163.718 101.32 128.104L206.637 311.5Z" fill="#2ACD83"/>
<path d="M437.02 74.98C388.668 26.629 324.38 0 256 0C187.62 0 123.332 26.629 74.98 74.98C26.629 123.333 0 187.62 0 256C0 324.38 26.629 388.667 74.98 437.02C123.332 485.371 187.62 512 256 512C299.251 512 342 501.012 379.627 480.223C388.095 475.545 380.841 462.414 372.373 467.093C336.961 486.659 296.72 497 256 497C191.626 497 131.106 471.932 85.587 426.413C40.068 380.894 15 320.374 15 256C15 191.626 40.068 131.106 85.587 85.587C131.106 40.068 191.626 15 256 15C320.374 15 380.894 40.068 426.413 85.587C471.932 131.106 497 191.626 497 256C497 329.677 463.948 398.341 406.318 444.387C398.759 450.426 408.123 462.145 415.681 456.106C476.894 407.198 512 334.262 512 256C512 187.62 485.371 123.333 437.02 74.98V74.98Z" fill="#2ACD83"/>
</svg>
